<svg xmlns="http://www.w3.org/2000/svg" viewBox="0 0 180 180" fill="none">
  <rect width="180" height="180" rx="40" fill="#0f172a"/>
  <path
    d="M45 54c0-6.1 4.9-11 11-11h23.6c4.5 0 8.6 2.4 11.2 6.2l4.5 6.8c2.6 4.4 6.4 6.6 10.7 6.6H124c6.1 0 11 4.9 11 11v56.8c0 6.1-4.9 11-11 11H56c-6.1 0-11-4.9-11-11V54z"
    fill="#14b8a6"
    opacity="0.9"
  />
  <path
    d="M62 59h31M62 76h45M62 93h36M62 110h42"
    stroke="#0f172a"
    stroke-width="6"
    stroke-linecap="round"
  />
  <circle cx="129" cy="118" r="14" fill="#f59e0b"/>
  <circle cx="129" cy="118" r="5.5" fill="#0f172a"/>
  <path d="M115 118h-16M129 104v-16" stroke="#f59e0b" stroke-width="5" stroke-linecap="round"/>
</svg>