<svg xmlns="http://www.w3.org/2000/svg" viewBox="0 0 32 32" fill="none">
  <rect width="32" height="32" rx="7" fill="#0f172a"/>
  <path
    d="M8 9.5c0-1.1.9-2 2-2h4.2c.8 0 1.5.4 2 1l.8 1.2c.5.8 1.2 1.2 2 1.2H22c1.1 0 2 .9 2 2v10.1c0 1.1-.9 2-2 2H10c-1.1 0-2-.9-2-2V9.5z"
    fill="#14b8a6"
    opacity="0.9"
  />
  <path
    d="M11 10.5h5.5M11 13.5h8M11 16.5h6.5M11 19.5h7.5"
    stroke="#0f172a"
    stroke-width="1.2"
    stroke-linecap="round"
  />
  <circle cx="23" cy="21" r="2.5" fill="#f59e0b"/>
  <circle cx="23" cy="21" r="1" fill="#0f172a"/>
  <path d="M20.5 21h-2.8M23 18.5v-2.2" stroke="#f59e0b" stroke-width="1" stroke-linecap="round"/>
</svg>